<svg width="64" height="64" viewBox="0 0 64 64" fill="none" xmlns="http://www.w3.org/2000/svg">
<g clip-path="url(#clip0_13814_129025)">
<path d="M43 29V39C43 39.2652 42.8946 39.5196 42.7071 39.7071C42.5196 39.8946 42.2652 40 42 40H26C25.7348 40 25.4804 39.8946 25.2929 39.7071C25.1054 39.5196 25 39.2652 25 39V29C25 28.7348 25.1054 28.4804 25.2929 28.2929C25.4804 28.1054 25.7348 28 26 28H32C32 28 32.9 29.45 34 29.45C35.1 29.45 36 28 36 28H42C42.2652 28 42.5196 28.1054 42.7071 28.2929C42.8946 28.4804 43 28.7348 43 29Z" fill="#F8CF6D"/>
<path d="M22.9299 7.52992C22.8484 8.62648 22.5096 9.6884 21.9411 10.6296C21.3726 11.5709 20.5904 12.3649 19.6578 12.9475C18.7253 13.5301 17.6685 13.8847 16.5733 13.9828C15.4781 14.0808 14.3752 13.9195 13.354 13.5118C12.3328 13.1041 11.422 12.4616 10.6953 11.6363C9.96872 10.811 9.44675 9.82614 9.17172 8.7615C8.89669 7.69687 8.87633 6.58241 9.1123 5.50845C9.34828 4.43448 9.83394 3.4312 10.5299 2.57992C11.0499 2.39992 19.9999 -0.590078 22.9299 7.52992Z" fill="#88B8F9"/>
<path d="M30.84 35.5399C30.6994 36.0239 30.3814 36.437 29.9494 36.6966C29.5174 36.9561 29.0033 37.043 28.51 36.9399L16.39 34.4299C16.0171 34.3434 15.6707 34.1682 15.3799 33.9193C15.0892 33.6703 14.8628 33.355 14.72 32.9999L10.26 24.1999C10.0899 23.8386 9.99366 23.4471 9.97689 23.0481C9.96012 22.6492 10.0232 22.2509 10.1623 21.8767C10.3014 21.5024 10.5139 21.1597 10.7872 20.8686C11.0605 20.5775 11.3892 20.3439 11.754 20.1815C12.1187 20.0191 12.5123 19.9311 12.9115 19.9228C13.3107 19.9144 13.7075 19.9858 14.0787 20.1328C14.45 20.2798 14.7882 20.4995 15.0734 20.7789C15.3587 21.0583 15.5853 21.3918 15.74 21.7599L18.88 29.9199L29.49 33.0399C29.7434 33.1144 29.9796 33.2383 30.1849 33.4045C30.3902 33.5708 30.5605 33.7761 30.6861 34.0085C30.8116 34.241 30.8898 34.496 30.9162 34.7588C30.9426 35.0216 30.9167 35.2871 30.84 35.5399Z" fill="#2F79F0"/>
<path d="M30.32 17.5099L22.65 24.8799C22.3492 25.147 21.9893 25.3389 21.5999 25.4398C21.2104 25.5406 20.8026 25.5475 20.41 25.4599L20.58 29.3999L19.64 29.1199C16.31 20.4799 16.64 21.2899 16.56 21.1199C16.2193 20.3923 15.6675 19.7842 14.9763 19.3747C14.2851 18.9652 13.4867 18.7733 12.6849 18.824C11.8831 18.8748 11.1152 19.1657 10.4811 19.6591C9.84707 20.1524 9.37625 20.8252 9.12998 21.5899C8.80266 22.5982 8.88898 23.6952 9.36998 24.6399L13.82 33.4199C14.0239 33.92 14.346 34.3633 14.7588 34.7116C15.1716 35.06 15.6627 35.303 16.19 35.4199L20.89 36.4199C21.04 40.0999 21.07 35.7499 20.5 61.5999C20.5092 61.9282 20.4536 62.2551 20.3365 62.5619C20.2193 62.8688 20.0429 63.1495 19.8172 63.3882C19.3615 63.8701 18.733 64.1513 18.07 64.1699C17.7417 64.1791 17.4148 64.1235 17.1079 64.0064C16.8011 63.8892 16.5204 63.7128 16.2817 63.4872C15.7997 63.0314 15.5185 62.4029 15.5 61.7399L14 43.9999H12L10.5 61.6999C10.4814 62.3629 10.2002 62.9914 9.71825 63.4472C9.23628 63.9029 8.59302 64.1485 7.92998 64.1299C7.26694 64.1113 6.63843 63.8301 6.18272 63.3482C5.72701 62.8662 5.48142 62.2229 5.49998 61.5599C4.89998 34.4899 4.81998 43.1499 5.69998 22.9999C5.76413 21.3642 6.37617 19.7975 7.43781 18.5515C8.49945 17.3055 9.94907 16.4525 11.5538 16.1295C13.1586 15.8065 14.8253 16.0322 16.2864 16.7704C17.7474 17.5086 18.918 18.7164 19.61 20.1999L20.34 20.3399L27.68 14.4899C28.0813 14.1666 28.592 14.0108 29.1054 14.0548C29.6189 14.0988 30.0955 14.3394 30.436 14.7262C30.7764 15.1131 30.9544 15.6165 30.9328 16.1313C30.9112 16.6462 30.6916 17.1329 30.32 17.4899V17.5099Z" fill="#2F79F0"/>
<path d="M29 6.91994C28.9795 7.20297 28.8484 7.46654 28.635 7.65367C28.4217 7.8408 28.1433 7.93645 27.86 7.91994L9 6.46994C9.05262 5.78601 9.20072 5.11281 9.44 4.46994L11.15 4.59994C11.2813 4.60979 11.4133 4.59368 11.5384 4.55252C11.6635 4.51137 11.7793 4.44597 11.8791 4.36008C11.9789 4.27419 12.0608 4.16947 12.1202 4.05192C12.1795 3.93436 12.2152 3.80626 12.225 3.67494C12.2348 3.54362 12.2187 3.41164 12.1776 3.28655C12.1364 3.16145 12.071 3.04569 11.9851 2.94587C11.8992 2.84604 11.7945 2.76412 11.677 2.70476C11.5594 2.64541 11.4313 2.60979 11.3 2.59994H10.56C11.3463 1.64323 12.3723 0.912235 13.5334 0.481545C14.6944 0.050855 15.949 -0.0641135 17.169 0.148371C18.389 0.360855 19.5308 0.893185 20.4779 1.69104C21.425 2.4889 22.1434 3.52373 22.56 4.68994L28.16 5.81994C28.4076 5.87409 28.628 6.01439 28.7818 6.21584C28.9356 6.41729 29.013 6.6668 29 6.91994Z" fill="#2F79F0"/>
<path d="M59 46V62C59 62.5304 58.7893 63.0391 58.4142 63.4142C58.0391 63.7893 57.5304 64 57 64H41C40.4696 64 39.9609 63.7893 39.5858 63.4142C39.2107 63.0391 39 62.5304 39 62V46C39 45.4696 39.2107 44.9609 39.5858 44.5858C39.9609 44.2107 40.4696 44 41 44H46C46.3437 44.4855 46.7913 44.8882 47.3103 45.1788C47.8292 45.4694 48.4065 45.6406 49 45.68C49.5935 45.6406 50.1708 45.4694 50.6897 45.1788C51.2087 44.8882 51.6563 44.4855 52 44H57C57.5304 44 58.0391 44.2107 58.4142 44.5858C58.7893 44.9609 59 45.4696 59 46Z" fill="#F8CF6D"/>
<path d="M46 44H52V50H46V44Z" fill="#EE7231"/>
<path d="M32 28H36V32H32V28Z" fill="#EE7231"/>
<path d="M28 17.9999C27.8013 18.0011 27.6069 17.9431 27.4413 17.8333C27.2758 17.7235 27.1468 17.5669 27.0706 17.3834C26.9944 17.2 26.9746 16.998 27.0137 16.8033C27.0527 16.6085 27.1489 16.4298 27.29 16.2899L33.29 10.2899C33.4783 10.1016 33.7337 9.99585 34 9.99585C34.2663 9.99585 34.5217 10.1016 34.71 10.2899C34.8983 10.4782 35.0041 10.7336 35.0041 10.9999C35.0041 11.2662 34.8983 11.5216 34.71 11.7099L28.71 17.7099C28.6165 17.8026 28.5057 17.8759 28.3839 17.9257C28.262 17.9755 28.1316 18.0007 28 17.9999Z" fill="#F8CF6D"/>
<path d="M45 33.6646C48.6819 33.6646 51.6667 30.6799 51.6667 26.998C51.6667 23.3161 48.6819 20.3313 45 20.3313C41.3181 20.3313 38.3334 23.3161 38.3334 26.998C38.3334 30.6799 41.3181 33.6646 45 33.6646Z" fill="#E63946"/>
<path d="M45.94 26.998L47.4733 25.4713C47.5989 25.3458 47.6694 25.1755 47.6694 24.998C47.6694 24.8205 47.5989 24.6502 47.4733 24.5247C47.3478 24.3991 47.1775 24.3286 47 24.3286C46.8225 24.3286 46.6522 24.3991 46.5267 24.5247L45 26.058L43.4733 24.5247C43.3478 24.3991 43.1775 24.3286 43 24.3286C42.8225 24.3286 42.6522 24.3991 42.5267 24.5247C42.4011 24.6502 42.3306 24.8205 42.3306 24.998C42.3306 25.1755 42.4011 25.3458 42.5267 25.4713L44.06 26.998L42.5267 28.5247C42.4642 28.5866 42.4146 28.6604 42.3807 28.7416C42.3469 28.8229 42.3295 28.91 42.3295 28.998C42.3295 29.086 42.3469 29.1732 42.3807 29.2544C42.4146 29.3356 42.4642 29.4094 42.5267 29.4713C42.5886 29.5338 42.6624 29.5834 42.7436 29.6173C42.8249 29.6511 42.912 29.6685 43 29.6685C43.088 29.6685 43.1751 29.6511 43.2564 29.6173C43.3376 29.5834 43.4114 29.5338 43.4733 29.4713L45 27.938L46.5267 29.4713C46.5886 29.5338 46.6624 29.5834 46.7436 29.6173C46.8249 29.6511 46.912 29.6685 47 29.6685C47.088 29.6685 47.1751 29.6511 47.2564 29.6173C47.3376 29.5834 47.4114 29.5338 47.4733 29.4713C47.5358 29.4094 47.5854 29.3356 47.6193 29.2544C47.6531 29.1732 47.6705 29.086 47.6705 28.998C47.6705 28.91 47.6531 28.8229 47.6193 28.7416C47.5854 28.6604 47.5358 28.5866 47.4733 28.5247L45.94 26.998Z" fill="#EDEBEA"/>
</g>
<defs>
<clipPath id="clip0_13814_129025">
<rect width="64" height="64" fill="white"/>
</clipPath>
</defs>
</svg>
